<svg id="visual" viewBox="0 0 900 600" width="900" height="600" xmlns="http://www.w3.org/2000/svg" xmlns:xlink="http://www.w3.org/1999/xlink" version="1.1"><g stroke-width="1" stroke-linejoin="bevel"><path d="M412 338L431 391L498 383Z" fill="#15384f" stroke="#15384f"></path><path d="M498 383L509 337L412 338Z" fill="#19435d" stroke="#19435d"></path><path d="M630 394L561 301L509 337Z" fill="#15384f" stroke="#15384f"></path><path d="M509 337L436 225L412 338Z" fill="#15384f" stroke="#15384f"></path><path d="M561 301L436 225L509 337Z" fill="#297ea6" stroke="#297ea6"></path><path d="M431 391L476 494L498 383Z" fill="#00101c" stroke="#00101c"></path><path d="M498 383L630 394L509 337Z" fill="#15384f" stroke="#15384f"></path><path d="M561 301L482 189L436 225Z" fill="#00101c" stroke="#00101c"></path><path d="M272 421L408 514L431 391Z" fill="#112e42" stroke="#112e42"></path><path d="M431 391L408 514L476 494Z" fill="#205a7a" stroke="#205a7a"></path><path d="M623 488L630 394L498 383Z" fill="#081a28" stroke="#081a28"></path><path d="M561 301L586 190L482 189Z" fill="#1d4e6b" stroke="#1d4e6b"></path><path d="M332 189L279 324L412 338Z" fill="#297ea6" stroke="#297ea6"></path><path d="M412 338L272 421L431 391Z" fill="#297ea6" stroke="#297ea6"></path><path d="M332 189L412 338L436 225Z" fill="#277297" stroke="#277297"></path><path d="M279 324L272 421L412 338Z" fill="#112e42" stroke="#112e42"></path><path d="M712 307L586 190L561 301Z" fill="#246688" stroke="#246688"></path><path d="M466 124L332 189L436 225Z" fill="#112e42" stroke="#112e42"></path><path d="M574 600L623 488L476 494Z" fill="#277297" stroke="#277297"></path><path d="M476 494L623 488L498 383Z" fill="#112e42" stroke="#112e42"></path><path d="M204 461L269 460L272 421Z" fill="#00101c" stroke="#00101c"></path><path d="M272 421L269 460L408 514Z" fill="#1d4e6b" stroke="#1d4e6b"></path><path d="M586 190L466 124L482 189Z" fill="#112e42" stroke="#112e42"></path><path d="M482 189L466 124L436 225Z" fill="#297ea6" stroke="#297ea6"></path><path d="M279 324L230 379L272 421Z" fill="#246688" stroke="#246688"></path><path d="M172 325L230 379L279 324Z" fill="#277297" stroke="#277297"></path><path d="M364 600L484 600L408 514Z" fill="#277297" stroke="#277297"></path><path d="M408 514L484 600L476 494Z" fill="#246688" stroke="#246688"></path><path d="M765 374L712 307L630 394Z" fill="#081a28" stroke="#081a28"></path><path d="M630 394L712 307L561 301Z" fill="#00101c" stroke="#00101c"></path><path d="M290 600L364 600L408 514Z" fill="#00101c" stroke="#00101c"></path><path d="M466 124L361 96L332 189Z" fill="#0c2435" stroke="#0c2435"></path><path d="M210 202L172 325L279 324Z" fill="#0c2435" stroke="#0c2435"></path><path d="M484 600L574 600L476 494Z" fill="#297ea6" stroke="#297ea6"></path><path d="M623 488L736 438L630 394Z" fill="#297ea6" stroke="#297ea6"></path><path d="M230 379L204 461L272 421Z" fill="#277297" stroke="#277297"></path><path d="M269 460L290 600L408 514Z" fill="#081a28" stroke="#081a28"></path><path d="M210 202L279 324L332 189Z" fill="#081a28" stroke="#081a28"></path><path d="M230 379L172 325L204 461Z" fill="#112e42" stroke="#112e42"></path><path d="M720 533L736 438L623 488Z" fill="#0c2435" stroke="#0c2435"></path><path d="M207 107L210 202L332 189Z" fill="#205a7a" stroke="#205a7a"></path><path d="M702 100L594 88L586 190Z" fill="#277297" stroke="#277297"></path><path d="M586 190L594 88L466 124Z" fill="#081a28" stroke="#081a28"></path><path d="M466 124L400 0L361 96Z" fill="#0c2435" stroke="#0c2435"></path><path d="M400 0L328 86L361 96Z" fill="#19435d" stroke="#19435d"></path><path d="M361 96L328 86L332 189Z" fill="#081a28" stroke="#081a28"></path><path d="M712 307L720 197L586 190Z" fill="#19435d" stroke="#19435d"></path><path d="M788 261L720 197L712 307Z" fill="#19435d" stroke="#19435d"></path><path d="M204 461L290 600L269 460Z" fill="#081a28" stroke="#081a28"></path><path d="M736 438L765 374L630 394Z" fill="#081a28" stroke="#081a28"></path><path d="M698 600L720 533L623 488Z" fill="#205a7a" stroke="#205a7a"></path><path d="M736 438L817 490L765 374Z" fill="#19435d" stroke="#19435d"></path><path d="M765 374L788 261L712 307Z" fill="#205a7a" stroke="#205a7a"></path><path d="M574 600L698 600L623 488Z" fill="#1d4e6b" stroke="#1d4e6b"></path><path d="M763 118L702 100L720 197Z" fill="#0c2435" stroke="#0c2435"></path><path d="M720 197L702 100L586 190Z" fill="#081a28" stroke="#081a28"></path><path d="M86 174L117 290L210 202Z" fill="#19435d" stroke="#19435d"></path><path d="M210 202L117 290L172 325Z" fill="#277297" stroke="#277297"></path><path d="M82 372L117 490L204 461Z" fill="#205a7a" stroke="#205a7a"></path><path d="M328 86L207 107L332 189Z" fill="#0c2435" stroke="#0c2435"></path><path d="M574 0L485 0L594 88Z" fill="#00101c" stroke="#00101c"></path><path d="M594 88L485 0L466 124Z" fill="#15384f" stroke="#15384f"></path><path d="M328 86L293 0L207 107Z" fill="#19435d" stroke="#19435d"></path><path d="M788 261L766 173L720 197Z" fill="#112e42" stroke="#112e42"></path><path d="M485 0L400 0L466 124Z" fill="#297ea6" stroke="#297ea6"></path><path d="M678 0L574 0L594 88Z" fill="#19435d" stroke="#19435d"></path><path d="M82 372L204 461L172 325Z" fill="#00101c" stroke="#00101c"></path><path d="M204 461L175 600L290 600Z" fill="#246688" stroke="#246688"></path><path d="M117 290L82 372L172 325Z" fill="#00101c" stroke="#00101c"></path><path d="M117 490L175 600L204 461Z" fill="#081a28" stroke="#081a28"></path><path d="M766 173L763 118L720 197Z" fill="#1d4e6b" stroke="#1d4e6b"></path><path d="M702 100L678 0L594 88Z" fill="#205a7a" stroke="#205a7a"></path><path d="M900 107L763 118L766 173Z" fill="#00101c" stroke="#00101c"></path><path d="M826 600L817 490L720 533Z" fill="#15384f" stroke="#15384f"></path><path d="M720 533L817 490L736 438Z" fill="#1d4e6b" stroke="#1d4e6b"></path><path d="M765 374L900 300L788 261Z" fill="#0c2435" stroke="#0c2435"></path><path d="M400 0L293 0L328 86Z" fill="#1d4e6b" stroke="#1d4e6b"></path><path d="M822 0L678 0L702 100Z" fill="#205a7a" stroke="#205a7a"></path><path d="M207 107L86 174L210 202Z" fill="#1d4e6b" stroke="#1d4e6b"></path><path d="M117 290L0 300L82 372Z" fill="#246688" stroke="#246688"></path><path d="M71 95L86 174L207 107Z" fill="#15384f" stroke="#15384f"></path><path d="M293 0L222 0L207 107Z" fill="#0c2435" stroke="#0c2435"></path><path d="M0 478L102 600L117 490Z" fill="#277297" stroke="#277297"></path><path d="M117 490L102 600L175 600Z" fill="#112e42" stroke="#112e42"></path><path d="M817 490L900 392L765 374Z" fill="#00101c" stroke="#00101c"></path><path d="M788 261L900 181L766 173Z" fill="#246688" stroke="#246688"></path><path d="M698 600L826 600L720 533Z" fill="#0c2435" stroke="#0c2435"></path><path d="M817 490L900 474L900 392Z" fill="#297ea6" stroke="#297ea6"></path><path d="M900 392L900 300L765 374Z" fill="#00101c" stroke="#00101c"></path><path d="M763 118L822 0L702 100Z" fill="#19435d" stroke="#19435d"></path><path d="M900 600L900 474L817 490Z" fill="#297ea6" stroke="#297ea6"></path><path d="M0 219L0 300L117 290Z" fill="#1d4e6b" stroke="#1d4e6b"></path><path d="M82 372L0 478L117 490Z" fill="#081a28" stroke="#081a28"></path><path d="M0 300L0 404L82 372Z" fill="#246688" stroke="#246688"></path><path d="M86 174L0 219L117 290Z" fill="#205a7a" stroke="#205a7a"></path><path d="M99 0L71 95L207 107Z" fill="#246688" stroke="#246688"></path><path d="M900 300L900 181L788 261Z" fill="#246688" stroke="#246688"></path><path d="M0 404L0 478L82 372Z" fill="#15384f" stroke="#15384f"></path><path d="M0 114L0 219L86 174Z" fill="#205a7a" stroke="#205a7a"></path><path d="M900 181L900 107L766 173Z" fill="#19435d" stroke="#19435d"></path><path d="M222 0L99 0L207 107Z" fill="#277297" stroke="#277297"></path><path d="M71 95L0 114L86 174Z" fill="#1d4e6b" stroke="#1d4e6b"></path><path d="M900 107L822 0L763 118Z" fill="#081a28" stroke="#081a28"></path><path d="M826 600L900 600L817 490Z" fill="#205a7a" stroke="#205a7a"></path><path d="M0 0L0 114L71 95Z" fill="#246688" stroke="#246688"></path><path d="M0 478L0 600L102 600Z" fill="#246688" stroke="#246688"></path><path d="M900 107L900 0L822 0Z" fill="#246688" stroke="#246688"></path><path d="M99 0L0 0L71 95Z" fill="#246688" stroke="#246688"></path></g></svg>